<svg class="marks" width="760" height="201" viewBox="0 0 760 201" version="1.1" xmlns="http://www.w3.org/2000/svg" xmlns:xlink="http://www.w3.org/1999/xlink"><defs><clipPath id="clip1"><rect x="0" y="0" width="170" height="120"></rect></clipPath><clipPath id="clip2"><rect x="0" y="0" width="170" height="120"></rect></clipPath><clipPath id="clip3"><rect x="0" y="0" width="170" height="120"></rect></clipPath><clipPath id="clip4"><rect x="0" y="0" width="170" height="120"></rect></clipPath><clipPath id="clip5"><rect x="0" y="0" width="170" height="120"></rect></clipPath><clipPath id="clip6"><rect x="0" y="0" width="170" height="120"></rect></clipPath><clipPath id="clip7"><rect x="0" y="0" width="170" height="120"></rect></clipPath><clipPath id="clip8"><rect x="0" y="0" width="170" height="120"></rect></clipPath></defs><g transform="translate(46,39)"><g class="mark-group role-frame root"><g transform="translate(0,0)"><path class="background" d="M0,0h0v0h0Z" style="fill: none;"></path><g><g class="mark-group role-column-title column-title"><g transform="translate(354,-23)"><path class="background" d="M0,0h0v0h0Z" style="fill: none;"></path><g><g class="mark-text role-title" style="pointer-events: none;"><text text-anchor="middle" transform="translate(0,-2)" style="font-family: sans-serif; font-size: 11px; font-weight: bold; fill: #000; opacity: 1;">Scale Factor</text></g></g></g></g><g class="mark-group role-row-header row_header"><g transform="translate(-2,0)"><path class="background" d="M0,0h0v120h0Z" style="fill: none;"></path><g><g class="mark-group role-axis"><g transform="translate(0.5,0.5)"><path class="background" d="M0,0h0v0h0Z" style="pointer-events: none; fill: none;"></path><g><g class="mark-rule role-axis-tick" style="pointer-events: none;"><line transform="translate(0,120)" x2="-5" y2="0" style="fill: none; stroke: #888; stroke-width: 1; opacity: 1;"></line><line transform="translate(0,72)" x2="-5" y2="0" style="fill: none; stroke: #888; stroke-width: 1; opacity: 1;"></line><line transform="translate(0,24)" x2="-5" y2="0" style="fill: none; stroke: #888; stroke-width: 1; opacity: 1;"></line></g><g class="mark-text role-axis-label" style="pointer-events: none;"><text text-anchor="end" transform="translate(-7,123)" style="font-family: sans-serif; font-size: 10px; fill: #000; opacity: 1;">0</text><text text-anchor="end" transform="translate(-7,75)" style="font-family: sans-serif; font-size: 10px; fill: #000; opacity: 1;">200</text><text text-anchor="end" transform="translate(-7,27)" style="font-family: sans-serif; font-size: 10px; fill: #000; opacity: 1;">400</text></g><g class="mark-rule role-axis-domain" style="pointer-events: none;"><line transform="translate(0,120)" x2="0" y2="-120" style="fill: none; stroke: #888; stroke-width: 1; opacity: 1;"></line></g><g class="mark-text role-axis-title" style="pointer-events: none;"><text text-anchor="middle" transform="translate(-27.6845703125,60) rotate(-90) translate(0,-2)" style="font-family: sans-serif; font-size: 11px; font-weight: bold; fill: #000; opacity: 1;">Mean Duration (with Std. Dev.)</text></g></g></g></g></g></g></g><g class="mark-group role-column-header column_header"><g transform="translate(0,-1)"><path class="background" d="M0,0h170v0h-170Z" style="fill: none;"></path><g><g class="mark-text role-title" style="pointer-events: none;"><text text-anchor="middle" transform="translate(85,-4)" style="font-family: sans-serif; font-size: 10px; fill: #000; opacity: 1;">1</text></g></g></g><g transform="translate(179,-1)"><path class="background" d="M0,0h170v0h-170Z" style="fill: none;"></path><g><g class="mark-text role-title" style="pointer-events: none;"><text text-anchor="middle" transform="translate(85,-4)" style="font-family: sans-serif; font-size: 10px; fill: #000; opacity: 1;">2</text></g></g></g><g transform="translate(358,-1)"><path class="background" d="M0,0h170v0h-170Z" style="fill: none;"></path><g><g class="mark-text role-title" style="pointer-events: none;"><text text-anchor="middle" transform="translate(85,-4)" style="font-family: sans-serif; font-size: 10px; fill: #000; opacity: 1;">4</text></g></g></g><g transform="translate(537,-1)"><path class="background" d="M0,0h170v0h-170Z" style="fill: none;"></path><g><g class="mark-text role-title" style="pointer-events: none;"><text text-anchor="middle" transform="translate(85,-4)" style="font-family: sans-serif; font-size: 10px; fill: #000; opacity: 1;">8</text></g></g></g></g><g class="mark-group role-column-footer column_footer"><g transform="translate(0,121)"><path class="background" d="M0,0h170v0h-170Z" style="fill: none;"></path><g><g class="mark-group role-axis"><g transform="translate(0.5,0.5)"><path class="background" d="M0,0h0v0h0Z" style="pointer-events: none; fill: none;"></path><g><g class="mark-rule role-axis-tick" style="pointer-events: none;"><line transform="translate(6,0)" x2="0" y2="5" style="fill: none; stroke: #888; stroke-width: 1; opacity: 1;"></line><line transform="translate(19,0)" x2="0" y2="5" style="fill: none; stroke: #888; stroke-width: 1; opacity: 1;"></line><line transform="translate(32,0)" x2="0" y2="5" style="fill: none; stroke: #888; stroke-width: 1; opacity: 1;"></line><line transform="translate(45,0)" x2="0" y2="5" style="fill: none; stroke: #888; stroke-width: 1; opacity: 1;"></line><line transform="translate(58,0)" x2="0" y2="5" style="fill: none; stroke: #888; stroke-width: 1; opacity: 1;"></line><line transform="translate(71,0)" x2="0" y2="5" style="fill: none; stroke: #888; stroke-width: 1; opacity: 1;"></line><line transform="translate(84,0)" x2="0" y2="5" style="fill: none; stroke: #888; stroke-width: 1; opacity: 1;"></line><line transform="translate(97,0)" x2="0" y2="5" style="fill: none; stroke: #888; stroke-width: 1; opacity: 1;"></line><line transform="translate(110,0)" x2="0" y2="5" style="fill: none; stroke: #888; stroke-width: 1; opacity: 1;"></line><line transform="translate(123,0)" x2="0" y2="5" style="fill: none; stroke: #888; stroke-width: 1; opacity: 1;"></line><line transform="translate(136,0)" x2="0" y2="5" style="fill: none; stroke: #888; stroke-width: 1; opacity: 1;"></line><line transform="translate(149,0)" x2="0" y2="5" style="fill: none; stroke: #888; stroke-width: 1; opacity: 1;"></line><line transform="translate(162,0)" x2="0" y2="5" style="fill: none; stroke: #888; stroke-width: 1; opacity: 1;"></line></g><g class="mark-text role-axis-label" style="pointer-events: none;"><text text-anchor="end" transform="translate(5.538461538461531,7) rotate(270) translate(0,3)" style="font-family: sans-serif; font-size: 10px; fill: #000; opacity: 1;">1.1</text><text text-anchor="end" transform="translate(18.615384615384606,7) rotate(270) translate(0,3)" style="font-family: sans-serif; font-size: 10px; fill: #000; opacity: 1;">1.2</text><text text-anchor="end" transform="translate(31.692307692307686,7) rotate(270) translate(0,3)" style="font-family: sans-serif; font-size: 10px; fill: #000; opacity: 1;">1.3</text><text text-anchor="end" transform="translate(44.76923076923076,7) rotate(270) translate(0,3)" style="font-family: sans-serif; font-size: 10px; fill: #000; opacity: 1;">2.1</text><text text-anchor="end" transform="translate(57.84615384615384,7) rotate(270) translate(0,3)" style="font-family: sans-serif; font-size: 10px; fill: #000; opacity: 1;">2.2</text><text text-anchor="end" transform="translate(70.92307692307692,7) rotate(270) translate(0,3)" style="font-family: sans-serif; font-size: 10px; fill: #000; opacity: 1;">2.3</text><text text-anchor="end" transform="translate(83.99999999999999,7) rotate(270) translate(0,3)" style="font-family: sans-serif; font-size: 10px; fill: #000; opacity: 1;">3.1</text><text text-anchor="end" transform="translate(97.07692307692307,7) rotate(270) translate(0,3)" style="font-family: sans-serif; font-size: 10px; fill: #000; opacity: 1;">3.2</text><text text-anchor="end" transform="translate(110.15384615384615,7) rotate(270) translate(0,3)" style="font-family: sans-serif; font-size: 10px; fill: #000; opacity: 1;">3.3</text><text text-anchor="end" transform="translate(123.23076923076923,7) rotate(270) translate(0,3)" style="font-family: sans-serif; font-size: 10px; fill: #000; opacity: 1;">3.4</text><text text-anchor="end" transform="translate(136.3076923076923,7) rotate(270) translate(0,3)" style="font-family: sans-serif; font-size: 10px; fill: #000; opacity: 1;">4.1</text><text text-anchor="end" transform="translate(149.3846153846154,7) rotate(270) translate(0,3)" style="font-family: sans-serif; font-size: 10px; fill: #000; opacity: 1;">4.2</text><text text-anchor="end" transform="translate(162.46153846153842,7) rotate(270) translate(0,3)" style="font-family: sans-serif; font-size: 10px; fill: #000; opacity: 1;">4.3</text></g><g class="mark-rule role-axis-domain" style="pointer-events: none;"><line transform="translate(0,0)" x2="170" y2="0" style="fill: none; stroke: #888; stroke-width: 1; opacity: 1;"></line></g><g class="mark-text role-axis-title" style="pointer-events: none;"><text text-anchor="middle" transform="translate(85,33.9013671875)" style="font-family: sans-serif; font-size: 11px; font-weight: bold; fill: #000; opacity: 1;">SSB Query</text></g></g></g></g></g></g><g transform="translate(179,121)"><path class="background" d="M0,0h170v0h-170Z" style="fill: none;"></path><g><g class="mark-group role-axis"><g transform="translate(0.5,0.5)"><path class="background" d="M0,0h0v0h0Z" style="pointer-events: none; fill: none;"></path><g><g class="mark-rule role-axis-tick" style="pointer-events: none;"><line transform="translate(6,0)" x2="0" y2="5" style="fill: none; stroke: #888; stroke-width: 1; opacity: 1;"></line><line transform="translate(19,0)" x2="0" y2="5" style="fill: none; stroke: #888; stroke-width: 1; opacity: 1;"></line><line transform="translate(32,0)" x2="0" y2="5" style="fill: none; stroke: #888; stroke-width: 1; opacity: 1;"></line><line transform="translate(45,0)" x2="0" y2="5" style="fill: none; stroke: #888; stroke-width: 1; opacity: 1;"></line><line transform="translate(58,0)" x2="0" y2="5" style="fill: none; stroke: #888; stroke-width: 1; opacity: 1;"></line><line transform="translate(71,0)" x2="0" y2="5" style="fill: none; stroke: #888; stroke-width: 1; opacity: 1;"></line><line transform="translate(84,0)" x2="0" y2="5" style="fill: none; stroke: #888; stroke-width: 1; opacity: 1;"></line><line transform="translate(97,0)" x2="0" y2="5" style="fill: none; stroke: #888; stroke-width: 1; opacity: 1;"></line><line transform="translate(110,0)" x2="0" y2="5" style="fill: none; stroke: #888; stroke-width: 1; opacity: 1;"></line><line transform="translate(123,0)" x2="0" y2="5" style="fill: none; stroke: #888; stroke-width: 1; opacity: 1;"></line><line transform="translate(136,0)" x2="0" y2="5" style="fill: none; stroke: #888; stroke-width: 1; opacity: 1;"></line><line transform="translate(149,0)" x2="0" y2="5" style="fill: none; stroke: #888; stroke-width: 1; opacity: 1;"></line><line transform="translate(162,0)" x2="0" y2="5" style="fill: none; stroke: #888; stroke-width: 1; opacity: 1;"></line></g><g class="mark-text role-axis-label" style="pointer-events: none;"><text text-anchor="end" transform="translate(5.538461538461531,7) rotate(270) translate(0,3)" style="font-family: sans-serif; font-size: 10px; fill: #000; opacity: 1;">1.1</text><text text-anchor="end" transform="translate(18.615384615384606,7) rotate(270) translate(0,3)" style="font-family: sans-serif; font-size: 10px; fill: #000; opacity: 1;">1.2</text><text text-anchor="end" transform="translate(31.692307692307686,7) rotate(270) translate(0,3)" style="font-family: sans-serif; font-size: 10px; fill: #000; opacity: 1;">1.3</text><text text-anchor="end" transform="translate(44.76923076923076,7) rotate(270) translate(0,3)" style="font-family: sans-serif; font-size: 10px; fill: #000; opacity: 1;">2.1</text><text text-anchor="end" transform="translate(57.84615384615384,7) rotate(270) translate(0,3)" style="font-family: sans-serif; font-size: 10px; fill: #000; opacity: 1;">2.2</text><text text-anchor="end" transform="translate(70.92307692307692,7) rotate(270) translate(0,3)" style="font-family: sans-serif; font-size: 10px; fill: #000; opacity: 1;">2.3</text><text text-anchor="end" transform="translate(83.99999999999999,7) rotate(270) translate(0,3)" style="font-family: sans-serif; font-size: 10px; fill: #000; opacity: 1;">3.1</text><text text-anchor="end" transform="translate(97.07692307692307,7) rotate(270) translate(0,3)" style="font-family: sans-serif; font-size: 10px; fill: #000; opacity: 1;">3.2</text><text text-anchor="end" transform="translate(110.15384615384615,7) rotate(270) translate(0,3)" style="font-family: sans-serif; font-size: 10px; fill: #000; opacity: 1;">3.3</text><text text-anchor="end" transform="translate(123.23076923076923,7) rotate(270) translate(0,3)" style="font-family: sans-serif; font-size: 10px; fill: #000; opacity: 1;">3.4</text><text text-anchor="end" transform="translate(136.3076923076923,7) rotate(270) translate(0,3)" style="font-family: sans-serif; font-size: 10px; fill: #000; opacity: 1;">4.1</text><text text-anchor="end" transform="translate(149.3846153846154,7) rotate(270) translate(0,3)" style="font-family: sans-serif; font-size: 10px; fill: #000; opacity: 1;">4.2</text><text text-anchor="end" transform="translate(162.46153846153842,7) rotate(270) translate(0,3)" style="font-family: sans-serif; font-size: 10px; fill: #000; opacity: 1;">4.3</text></g><g class="mark-rule role-axis-domain" style="pointer-events: none;"><line transform="translate(0,0)" x2="170" y2="0" style="fill: none; stroke: #888; stroke-width: 1; opacity: 1;"></line></g><g class="mark-text role-axis-title" style="pointer-events: none;"><text text-anchor="middle" transform="translate(85,33.9013671875)" style="font-family: sans-serif; font-size: 11px; font-weight: bold; fill: #000; opacity: 1;">SSB Query</text></g></g></g></g></g></g><g transform="translate(358,121)"><path class="background" d="M0,0h170v0h-170Z" style="fill: none;"></path><g><g class="mark-group role-axis"><g transform="translate(0.5,0.5)"><path class="background" d="M0,0h0v0h0Z" style="pointer-events: none; fill: none;"></path><g><g class="mark-rule role-axis-tick" style="pointer-events: none;"><line transform="translate(6,0)" x2="0" y2="5" style="fill: none; stroke: #888; stroke-width: 1; opacity: 1;"></line><line transform="translate(19,0)" x2="0" y2="5" style="fill: none; stroke: #888; stroke-width: 1; opacity: 1;"></line><line transform="translate(32,0)" x2="0" y2="5" style="fill: none; stroke: #888; stroke-width: 1; opacity: 1;"></line><line transform="translate(45,0)" x2="0" y2="5" style="fill: none; stroke: #888; stroke-width: 1; opacity: 1;"></line><line transform="translate(58,0)" x2="0" y2="5" style="fill: none; stroke: #888; stroke-width: 1; opacity: 1;"></line><line transform="translate(71,0)" x2="0" y2="5" style="fill: none; stroke: #888; stroke-width: 1; opacity: 1;"></line><line transform="translate(84,0)" x2="0" y2="5" style="fill: none; stroke: #888; stroke-width: 1; opacity: 1;"></line><line transform="translate(97,0)" x2="0" y2="5" style="fill: none; stroke: #888; stroke-width: 1; opacity: 1;"></line><line transform="translate(110,0)" x2="0" y2="5" style="fill: none; stroke: #888; stroke-width: 1; opacity: 1;"></line><line transform="translate(123,0)" x2="0" y2="5" style="fill: none; stroke: #888; stroke-width: 1; opacity: 1;"></line><line transform="translate(136,0)" x2="0" y2="5" style="fill: none; stroke: #888; stroke-width: 1; opacity: 1;"></line><line transform="translate(149,0)" x2="0" y2="5" style="fill: none; stroke: #888; stroke-width: 1; opacity: 1;"></line><line transform="translate(162,0)" x2="0" y2="5" style="fill: none; stroke: #888; stroke-width: 1; opacity: 1;"></line></g><g class="mark-text role-axis-label" style="pointer-events: none;"><text text-anchor="end" transform="translate(5.538461538461531,7) rotate(270) translate(0,3)" style="font-family: sans-serif; font-size: 10px; fill: #000; opacity: 1;">1.1</text><text text-anchor="end" transform="translate(18.615384615384606,7) rotate(270) translate(0,3)" style="font-family: sans-serif; font-size: 10px; fill: #000; opacity: 1;">1.2</text><text text-anchor="end" transform="translate(31.692307692307686,7) rotate(270) translate(0,3)" style="font-family: sans-serif; font-size: 10px; fill: #000; opacity: 1;">1.3</text><text text-anchor="end" transform="translate(44.76923076923076,7) rotate(270) translate(0,3)" style="font-family: sans-serif; font-size: 10px; fill: #000; opacity: 1;">2.1</text><text text-anchor="end" transform="translate(57.84615384615384,7) rotate(270) translate(0,3)" style="font-family: sans-serif; font-size: 10px; fill: #000; opacity: 1;">2.2</text><text text-anchor="end" transform="translate(70.92307692307692,7) rotate(270) translate(0,3)" style="font-family: sans-serif; font-size: 10px; fill: #000; opacity: 1;">2.3</text><text text-anchor="end" transform="translate(83.99999999999999,7) rotate(270) translate(0,3)" style="font-family: sans-serif; font-size: 10px; fill: #000; opacity: 1;">3.1</text><text text-anchor="end" transform="translate(97.07692307692307,7) rotate(270) translate(0,3)" style="font-family: sans-serif; font-size: 10px; fill: #000; opacity: 1;">3.2</text><text text-anchor="end" transform="translate(110.15384615384615,7) rotate(270) translate(0,3)" style="font-family: sans-serif; font-size: 10px; fill: #000; opacity: 1;">3.3</text><text text-anchor="end" transform="translate(123.23076923076923,7) rotate(270) translate(0,3)" style="font-family: sans-serif; font-size: 10px; fill: #000; opacity: 1;">3.4</text><text text-anchor="end" transform="translate(136.3076923076923,7) rotate(270) translate(0,3)" style="font-family: sans-serif; font-size: 10px; fill: #000; opacity: 1;">4.1</text><text text-anchor="end" transform="translate(149.3846153846154,7) rotate(270) translate(0,3)" style="font-family: sans-serif; font-size: 10px; fill: #000; opacity: 1;">4.2</text><text text-anchor="end" transform="translate(162.46153846153842,7) rotate(270) translate(0,3)" style="font-family: sans-serif; font-size: 10px; fill: #000; opacity: 1;">4.3</text></g><g class="mark-rule role-axis-domain" style="pointer-events: none;"><line transform="translate(0,0)" x2="170" y2="0" style="fill: none; stroke: #888; stroke-width: 1; opacity: 1;"></line></g><g class="mark-text role-axis-title" style="pointer-events: none;"><text text-anchor="middle" transform="translate(85,33.9013671875)" style="font-family: sans-serif; font-size: 11px; font-weight: bold; fill: #000; opacity: 1;">SSB Query</text></g></g></g></g></g></g><g transform="translate(537,121)"><path class="background" d="M0,0h170v0h-170Z" style="fill: none;"></path><g><g class="mark-group role-axis"><g transform="translate(0.5,0.5)"><path class="background" d="M0,0h0v0h0Z" style="pointer-events: none; fill: none;"></path><g><g class="mark-rule role-axis-tick" style="pointer-events: none;"><line transform="translate(6,0)" x2="0" y2="5" style="fill: none; stroke: #888; stroke-width: 1; opacity: 1;"></line><line transform="translate(19,0)" x2="0" y2="5" style="fill: none; stroke: #888; stroke-width: 1; opacity: 1;"></line><line transform="translate(32,0)" x2="0" y2="5" style="fill: none; stroke: #888; stroke-width: 1; opacity: 1;"></line><line transform="translate(45,0)" x2="0" y2="5" style="fill: none; stroke: #888; stroke-width: 1; opacity: 1;"></line><line transform="translate(58,0)" x2="0" y2="5" style="fill: none; stroke: #888; stroke-width: 1; opacity: 1;"></line><line transform="translate(71,0)" x2="0" y2="5" style="fill: none; stroke: #888; stroke-width: 1; opacity: 1;"></line><line transform="translate(84,0)" x2="0" y2="5" style="fill: none; stroke: #888; stroke-width: 1; opacity: 1;"></line><line transform="translate(97,0)" x2="0" y2="5" style="fill: none; stroke: #888; stroke-width: 1; opacity: 1;"></line><line transform="translate(110,0)" x2="0" y2="5" style="fill: none; stroke: #888; stroke-width: 1; opacity: 1;"></line><line transform="translate(123,0)" x2="0" y2="5" style="fill: none; stroke: #888; stroke-width: 1; opacity: 1;"></line><line transform="translate(136,0)" x2="0" y2="5" style="fill: none; stroke: #888; stroke-width: 1; opacity: 1;"></line><line transform="translate(149,0)" x2="0" y2="5" style="fill: none; stroke: #888; stroke-width: 1; opacity: 1;"></line><line transform="translate(162,0)" x2="0" y2="5" style="fill: none; stroke: #888; stroke-width: 1; opacity: 1;"></line></g><g class="mark-text role-axis-label" style="pointer-events: none;"><text text-anchor="end" transform="translate(5.538461538461531,7) rotate(270) translate(0,3)" style="font-family: sans-serif; font-size: 10px; fill: #000; opacity: 1;">1.1</text><text text-anchor="end" transform="translate(18.615384615384606,7) rotate(270) translate(0,3)" style="font-family: sans-serif; font-size: 10px; fill: #000; opacity: 1;">1.2</text><text text-anchor="end" transform="translate(31.692307692307686,7) rotate(270) translate(0,3)" style="font-family: sans-serif; font-size: 10px; fill: #000; opacity: 1;">1.3</text><text text-anchor="end" transform="translate(44.76923076923076,7) rotate(270) translate(0,3)" style="font-family: sans-serif; font-size: 10px; fill: #000; opacity: 1;">2.1</text><text text-anchor="end" transform="translate(57.84615384615384,7) rotate(270) translate(0,3)" style="font-family: sans-serif; font-size: 10px; fill: #000; opacity: 1;">2.2</text><text text-anchor="end" transform="translate(70.92307692307692,7) rotate(270) translate(0,3)" style="font-family: sans-serif; font-size: 10px; fill: #000; opacity: 1;">2.3</text><text text-anchor="end" transform="translate(83.99999999999999,7) rotate(270) translate(0,3)" style="font-family: sans-serif; font-size: 10px; fill: #000; opacity: 1;">3.1</text><text text-anchor="end" transform="translate(97.07692307692307,7) rotate(270) translate(0,3)" style="font-family: sans-serif; font-size: 10px; fill: #000; opacity: 1;">3.2</text><text text-anchor="end" transform="translate(110.15384615384615,7) rotate(270) translate(0,3)" style="font-family: sans-serif; font-size: 10px; fill: #000; opacity: 1;">3.3</text><text text-anchor="end" transform="translate(123.23076923076923,7) rotate(270) translate(0,3)" style="font-family: sans-serif; font-size: 10px; fill: #000; opacity: 1;">3.4</text><text text-anchor="end" transform="translate(136.3076923076923,7) rotate(270) translate(0,3)" style="font-family: sans-serif; font-size: 10px; fill: #000; opacity: 1;">4.1</text><text text-anchor="end" transform="translate(149.3846153846154,7) rotate(270) translate(0,3)" style="font-family: sans-serif; font-size: 10px; fill: #000; opacity: 1;">4.2</text><text text-anchor="end" transform="translate(162.46153846153842,7) rotate(270) translate(0,3)" style="font-family: sans-serif; font-size: 10px; fill: #000; opacity: 1;">4.3</text></g><g class="mark-rule role-axis-domain" style="pointer-events: none;"><line transform="translate(0,0)" x2="170" y2="0" style="fill: none; stroke: #888; stroke-width: 1; opacity: 1;"></line></g><g class="mark-text role-axis-title" style="pointer-events: none;"><text text-anchor="middle" transform="translate(85,33.9013671875)" style="font-family: sans-serif; font-size: 11px; font-weight: bold; fill: #000; opacity: 1;">SSB Query</text></g></g></g></g></g></g></g><g class="mark-group role-scope cell"><g transform="translate(0,0)"><path class="background" d="M0.5,0.5h170v120h-170Z" style="fill: none; stroke: #ddd;"></path><g><g class="mark-group role-axis"><g transform="translate(0.5,0.5)"><path class="background" d="M0,0h0v0h0Z" style="pointer-events: none; fill: none;"></path><g><g class="mark-rule role-axis-grid" style="pointer-events: none;"><line transform="translate(0,120)" x2="170" y2="0" style="fill: none; stroke: #ddd; stroke-width: 1; opacity: 1;"></line><line transform="translate(0,72)" x2="170" y2="0" style="fill: none; stroke: #ddd; stroke-width: 1; opacity: 1;"></line><line transform="translate(0,24)" x2="170" y2="0" style="fill: none; stroke: #ddd; stroke-width: 1; opacity: 1;"></line></g></g></g></g><g class="mark-rule role-mark child_layer_0_marks"><line transform="translate(0,96)" x2="170" y2="0" style="fill: none; stroke: red;"></line><line transform="translate(0,96)" x2="170" y2="0" style="fill: none; stroke: red;"></line><line transform="translate(0,96)" x2="170" y2="0" style="fill: none; stroke: red;"></line><line transform="translate(0,96)" x2="170" y2="0" style="fill: none; stroke: red;"></line><line transform="translate(0,96)" x2="170" y2="0" style="fill: none; stroke: red;"></line><line transform="translate(0,96)" x2="170" y2="0" style="fill: none; stroke: red;"></line><line transform="translate(0,96)" x2="170" y2="0" style="fill: none; stroke: red;"></line><line transform="translate(0,96)" x2="170" y2="0" style="fill: none; stroke: red;"></line><line transform="translate(0,96)" x2="170" y2="0" style="fill: none; stroke: red;"></line><line transform="translate(0,96)" x2="170" y2="0" style="fill: none; stroke: red;"></line><line transform="translate(0,96)" x2="170" y2="0" style="fill: none; stroke: red;"></line><line transform="translate(0,96)" x2="170" y2="0" style="fill: none; stroke: red;"></line><line transform="translate(0,96)" x2="170" y2="0" style="fill: none; stroke: red;"></line></g><g class="mark-rect role-mark child_layer_1_marks" clip-path="url(#clip1)"><path d="M0.6538461538461462,114h11.76923076923077v6h-11.76923076923077Z" style="fill: rgb(168, 206, 229);"></path><path d="M13.730769230769223,114.48h11.76923076923077v5.519999999999996h-11.76923076923077Z" style="fill: rgb(168, 206, 229);"></path><path d="M26.8076923076923,114.816h11.76923076923077v5.1839999999999975h-11.76923076923077Z" style="fill: rgb(168, 206, 229);"></path><path d="M39.88461538461537,110.44800000000001h11.76923076923077v9.551999999999992h-11.76923076923077Z" style="fill: rgb(168, 206, 229);"></path><path d="M52.96153846153845,112.224h11.76923076923077v7.775999999999996h-11.76923076923077Z" style="fill: rgb(168, 206, 229);"></path><path d="M66.03846153846153,113.472h11.76923076923077v6.528000000000006h-11.76923076923077Z" style="fill: rgb(168, 206, 229);"></path><path d="M79.1153846153846,104.592h11.76923076923077v15.408000000000001h-11.76923076923077Z" style="fill: rgb(168, 206, 229);"></path><path d="M92.19230769230768,105.984h11.76923076923077v14.016000000000005h-11.76923076923077Z" style="fill: rgb(168, 206, 229);"></path><path d="M105.26923076923076,112.896h11.76923076923077v7.103999999999999h-11.76923076923077Z" style="fill: rgb(168, 206, 229);"></path><path d="M118.34615384615384,113.04h11.76923076923077v6.959999999999994h-11.76923076923077Z" style="fill: rgb(168, 206, 229);"></path><path d="M131.4230769230769,105.984h11.76923076923077v14.016000000000005h-11.76923076923077Z" style="fill: rgb(168, 206, 229);"></path><path d="M144.5,105.312h11.76923076923077v14.688000000000002h-11.76923076923077Z" style="fill: rgb(168, 206, 229);"></path><path d="M157.57692307692304,108h11.76923076923077v12h-11.76923076923077Z" style="fill: rgb(168, 206, 229);"></path></g><g class="mark-rule role-mark child_layer_2_layer_0_marks" clip-path="url(#clip2)"><line transform="translate(6.538461538461531,114.293938769136)" x2="0" y2="-0.5878775382720107" style="fill: none; stroke: black;"></line><line transform="translate(19.615384615384606,114.928998886416)" x2="0" y2="-0.8979977728319994" style="fill: none; stroke: black;"></line><line transform="translate(32.692307692307686,115.179978021312)" x2="0" y2="-0.727956042624001" style="fill: none; stroke: black;"></line><line transform="translate(45.76923076923076,111.233060507232)" x2="0" y2="-1.570121014463993" style="fill: none; stroke: black;"></line><line transform="translate(58.84615384615384,112.3554534138)" x2="0" y2="-0.2629068276000055" style="fill: none; stroke: black;"></line><line transform="translate(71.92307692307692,113.67279840636)" x2="0" y2="-0.40159681272000114" style="fill: none; stroke: black;"></line><line transform="translate(84.99999999999999,106.399185657312)" x2="0" y2="-3.6143713146239946" style="fill: none; stroke: black;"></line><line transform="translate(98.07692307692307,107.294145030144)" x2="0" y2="-2.6202900602879993" style="fill: none; stroke: black;"></line><line transform="translate(111.15384615384615,113.297596812744)" x2="0" y2="-0.8031936254880065" style="fill: none; stroke: black;"></line><line transform="translate(124.23076923076923,113.209705627488)" x2="0" y2="-0.33941125497599955" style="fill: none; stroke: black;"></line><line transform="translate(137.3076923076923,106.481674592472)" x2="0" y2="-0.9953491849440042" style="fill: none; stroke: black;"></line><line transform="translate(150.3846153846154,106.292775203592)" x2="0" y2="-1.9615504071840064" style="fill: none; stroke: black;"></line><line transform="translate(163.46153846153842,108.379473319224)" x2="0" y2="-0.758946638448009" style="fill: none; stroke: black;"></line></g></g></g><g transform="translate(179,0)"><path class="background" d="M0.5,0.5h170v120h-170Z" style="fill: none; stroke: #ddd;"></path><g><g class="mark-group role-axis"><g transform="translate(0.5,0.5)"><path class="background" d="M0,0h0v0h0Z" style="pointer-events: none; fill: none;"></path><g><g class="mark-rule role-axis-grid" style="pointer-events: none;"><line transform="translate(0,120)" x2="170" y2="0" style="fill: none; stroke: #ddd; stroke-width: 1; opacity: 1;"></line><line transform="translate(0,72)" x2="170" y2="0" style="fill: none; stroke: #ddd; stroke-width: 1; opacity: 1;"></line><line transform="translate(0,24)" x2="170" y2="0" style="fill: none; stroke: #ddd; stroke-width: 1; opacity: 1;"></line></g></g></g></g><g class="mark-rule role-mark child_layer_0_marks"><line transform="translate(0,96)" x2="170" y2="0" style="fill: none; stroke: red;"></line><line transform="translate(0,96)" x2="170" y2="0" style="fill: none; stroke: red;"></line><line transform="translate(0,96)" x2="170" y2="0" style="fill: none; stroke: red;"></line><line transform="translate(0,96)" x2="170" y2="0" style="fill: none; stroke: red;"></line><line transform="translate(0,96)" x2="170" y2="0" style="fill: none; stroke: red;"></line><line transform="translate(0,96)" x2="170" y2="0" style="fill: none; stroke: red;"></line><line transform="translate(0,96)" x2="170" y2="0" style="fill: none; stroke: red;"></line><line transform="translate(0,96)" x2="170" y2="0" style="fill: none; stroke: red;"></line><line transform="translate(0,96)" x2="170" y2="0" style="fill: none; stroke: red;"></line><line transform="translate(0,96)" x2="170" y2="0" style="fill: none; stroke: red;"></line><line transform="translate(0,96)" x2="170" y2="0" style="fill: none; stroke: red;"></line><line transform="translate(0,96)" x2="170" y2="0" style="fill: none; stroke: red;"></line><line transform="translate(0,96)" x2="170" y2="0" style="fill: none; stroke: red;"></line></g><g class="mark-rect role-mark child_layer_1_marks" clip-path="url(#clip3)"><path d="M0.6538461538461462,110.784h11.76923076923077v9.215999999999994h-11.76923076923077Z" style="fill: rgb(116, 178, 215);"></path><path d="M13.730769230769223,110.592h11.76923076923077v9.408000000000001h-11.76923076923077Z" style="fill: rgb(116, 178, 215);"></path><path d="M26.8076923076923,111.984h11.76923076923077v8.016000000000005h-11.76923076923077Z" style="fill: rgb(116, 178, 215);"></path><path d="M39.88461538461537,107.376h11.76923076923077v12.623999999999995h-11.76923076923077Z" style="fill: rgb(116, 178, 215);"></path><path d="M52.96153846153845,108.48h11.76923076923077v11.519999999999996h-11.76923076923077Z" style="fill: rgb(116, 178, 215);"></path><path d="M66.03846153846153,110.544h11.76923076923077v9.456000000000003h-11.76923076923077Z" style="fill: rgb(116, 178, 215);"></path><path d="M79.1153846153846,96.72h11.76923076923077v23.28h-11.76923076923077Z" style="fill: rgb(116, 178, 215);"></path><path d="M92.19230769230768,92.688h11.76923076923077v27.311999999999998h-11.76923076923077Z" style="fill: rgb(116, 178, 215);"></path><path d="M105.26923076923076,111.168h11.76923076923077v8.831999999999994h-11.76923076923077Z" style="fill: rgb(116, 178, 215);"></path><path d="M118.34615384615384,110.88h11.76923076923077v9.120000000000005h-11.76923076923077Z" style="fill: rgb(116, 178, 215);"></path><path d="M131.4230769230769,98.688h11.76923076923077v21.311999999999998h-11.76923076923077Z" style="fill: rgb(116, 178, 215);"></path><path d="M144.5,99.21600000000001h11.76923076923077v20.783999999999992h-11.76923076923077Z" style="fill: rgb(116, 178, 215);"></path><path d="M157.57692307692304,104.592h11.76923076923077v15.408000000000001h-11.76923076923077Z" style="fill: rgb(116, 178, 215);"></path></g><g class="mark-rule role-mark child_layer_2_layer_0_marks" clip-path="url(#clip4)"><line transform="translate(6.538461538461531,111.25184612856)" x2="0" y2="-0.9356922571199959" style="fill: none; stroke: black;"></line><line transform="translate(19.615384615384606,112.72786516428)" x2="0" y2="-4.271730328559997" style="fill: none; stroke: black;"></line><line transform="translate(32.692307692307686,112.257642102024)" x2="0" y2="-0.5472842040479975" style="fill: none; stroke: black;"></line><line transform="translate(45.76923076923076,107.84384612856)" x2="0" y2="-0.9356922571200101" style="fill: none; stroke: black;"></line><line transform="translate(58.84615384615384,109.042849891176)" x2="0" y2="-1.125699782352001" style="fill: none; stroke: black;"></line><line transform="translate(71.92307692307692,110.6754534138)" x2="0" y2="-0.2629068276000055" style="fill: none; stroke: black;"></line><line transform="translate(84.99999999999999,99.131970149064)" x2="0" y2="-4.823940298127994" style="fill: none; stroke: black;"></line><line transform="translate(98.07692307692307,99.106373625768)" x2="0" y2="-12.83674725153601" style="fill: none; stroke: black;"></line><line transform="translate(111.15384615384615,111.48092171544)" x2="0" y2="-0.6258434308800105" style="fill: none; stroke: black;"></line><line transform="translate(124.23076923076923,111.12)" x2="0" y2="-0.480000000000004" style="fill: none; stroke: black;"></line><line transform="translate(137.3076923076923,99.491193625464)" x2="0" y2="-1.6063872509280088" style="fill: none; stroke: black;"></line><line transform="translate(150.3846153846154,100.84905848028001)" x2="0" y2="-3.266116960560012" style="fill: none; stroke: black;"></line><line transform="translate(163.46153846153842,105.572775203592)" x2="0" y2="-1.9615504071840064" style="fill: none; stroke: black;"></line></g></g></g><g transform="translate(358,0)"><path class="background" d="M0.5,0.5h170v120h-170Z" style="fill: none; stroke: #ddd;"></path><g><g class="mark-group role-axis"><g transform="translate(0.5,0.5)"><path class="background" d="M0,0h0v0h0Z" style="pointer-events: none; fill: none;"></path><g><g class="mark-rule role-axis-grid" style="pointer-events: none;"><line transform="translate(0,120)" x2="170" y2="0" style="fill: none; stroke: #ddd; stroke-width: 1; opacity: 1;"></line><line transform="translate(0,72)" x2="170" y2="0" style="fill: none; stroke: #ddd; stroke-width: 1; opacity: 1;"></line><line transform="translate(0,24)" x2="170" y2="0" style="fill: none; stroke: #ddd; stroke-width: 1; opacity: 1;"></line></g></g></g></g><g class="mark-rule role-mark child_layer_0_marks"><line transform="translate(0,96)" x2="170" y2="0" style="fill: none; stroke: red;"></line><line transform="translate(0,96)" x2="170" y2="0" style="fill: none; stroke: red;"></line><line transform="translate(0,96)" x2="170" y2="0" style="fill: none; stroke: red;"></line><line transform="translate(0,96)" x2="170" y2="0" style="fill: none; stroke: red;"></line><line transform="translate(0,96)" x2="170" y2="0" style="fill: none; stroke: red;"></line><line transform="translate(0,96)" x2="170" y2="0" style="fill: none; stroke: red;"></line><line transform="translate(0,96)" x2="170" y2="0" style="fill: none; stroke: red;"></line><line transform="translate(0,96)" x2="170" y2="0" style="fill: none; stroke: red;"></line><line transform="translate(0,96)" x2="170" y2="0" style="fill: none; stroke: red;"></line><line transform="translate(0,96)" x2="170" y2="0" style="fill: none; stroke: red;"></line><line transform="translate(0,96)" x2="170" y2="0" style="fill: none; stroke: red;"></line><line transform="translate(0,96)" x2="170" y2="0" style="fill: none; stroke: red;"></line><line transform="translate(0,96)" x2="170" y2="0" style="fill: none; stroke: red;"></line></g><g class="mark-rect role-mark child_layer_1_marks" clip-path="url(#clip5)"><path d="M0.6538461538461462,101.904h11.76923076923077v18.096000000000004h-11.76923076923077Z" style="fill: rgb(69, 146, 198);"></path><path d="M13.730769230769223,105.504h11.76923076923077v14.495999999999995h-11.76923076923077Z" style="fill: rgb(69, 146, 198);"></path><path d="M26.8076923076923,106.656h11.76923076923077v13.343999999999994h-11.76923076923077Z" style="fill: rgb(69, 146, 198);"></path><path d="M39.88461538461537,94.08h11.76923076923077v25.92h-11.76923076923077Z" style="fill: rgb(69, 146, 198);"></path><path d="M52.96153846153845,101.232h11.76923076923077v18.768h-11.76923076923077Z" style="fill: rgb(69, 146, 198);"></path><path d="M66.03846153846153,103.44h11.76923076923077v16.560000000000002h-11.76923076923077Z" style="fill: rgb(69, 146, 198);"></path><path d="M79.1153846153846,79.584h11.76923076923077v40.416h-11.76923076923077Z" style="fill: rgb(69, 146, 198);"></path><path d="M92.19230769230768,80.49600000000001h11.76923076923077v39.50399999999999h-11.76923076923077Z" style="fill: rgb(69, 146, 198);"></path><path d="M105.26923076923076,106.08h11.76923076923077v13.920000000000002h-11.76923076923077Z" style="fill: rgb(69, 146, 198);"></path><path d="M118.34615384615384,106.512h11.76923076923077v13.488h-11.76923076923077Z" style="fill: rgb(69, 146, 198);"></path><path d="M131.4230769230769,82.992h11.76923076923077v37.007999999999996h-11.76923076923077Z" style="fill: rgb(69, 146, 198);"></path><path d="M144.5,85.2h11.76923076923077v34.8h-11.76923076923077Z" style="fill: rgb(69, 146, 198);"></path><path d="M157.57692307692304,93.984h11.76923076923077v26.016000000000005h-11.76923076923077Z" style="fill: rgb(69, 146, 198);"></path></g><g class="mark-rule role-mark child_layer_2_layer_0_marks" clip-path="url(#clip6)"><line transform="translate(6.538461538461531,106.753544308488)" x2="0" y2="-9.699088616975999" style="fill: none; stroke: black;"></line><line transform="translate(19.615384615384606,106.442765146344)" x2="0" y2="-1.8775302926880073" style="fill: none; stroke: black;"></line><line transform="translate(32.692307692307686,107.153674592472)" x2="0" y2="-0.9953491849440042" style="fill: none; stroke: black;"></line><line transform="translate(45.76923076923076,100.041476327208)" x2="0" y2="-11.922952654416008" style="fill: none; stroke: black;"></line><line transform="translate(58.84615384615384,101.919255411048)" x2="0" y2="-1.3745108220959992" style="fill: none; stroke: black;"></line><line transform="translate(71.92307692307692,107.68603344312)" x2="0" y2="-8.492066886239996" style="fill: none; stroke: black;"></line><line transform="translate(84.99999999999999,81.225852612144)" x2="0" y2="-3.283705224287999" style="fill: none; stroke: black;"></line><line transform="translate(98.07692307692307,86.98621417212)" x2="0" y2="-12.980428344239996" style="fill: none; stroke: black;"></line><line transform="translate(111.15384615384615,106.528998886416)" x2="0" y2="-0.8979977728319994" style="fill: none; stroke: black;"></line><line transform="translate(124.23076923076923,106.94132505168)" x2="0" y2="-0.8586501033599916" style="fill: none; stroke: black;"></line><line transform="translate(137.3076923076923,84.255138947232)" x2="0" y2="-2.526277894464002" style="fill: none; stroke: black;"></line><line transform="translate(150.3846153846154,86.88)" x2="0" y2="-3.359999999999985" style="fill: none; stroke: black;"></line><line transform="translate(163.46153846153842,95.952877852992)" x2="0" y2="-3.937755705984003" style="fill: none; stroke: black;"></line></g></g></g><g transform="translate(537,0)"><path class="background" d="M0.5,0.5h170v120h-170Z" style="fill: none; stroke: #ddd;"></path><g><g class="mark-group role-axis"><g transform="translate(0.5,0.5)"><path class="background" d="M0,0h0v0h0Z" style="pointer-events: none; fill: none;"></path><g><g class="mark-rule role-axis-grid" style="pointer-events: none;"><line transform="translate(0,120)" x2="170" y2="0" style="fill: none; stroke: #ddd; stroke-width: 1; opacity: 1;"></line><line transform="translate(0,72)" x2="170" y2="0" style="fill: none; stroke: #ddd; stroke-width: 1; opacity: 1;"></line><line transform="translate(0,24)" x2="170" y2="0" style="fill: none; stroke: #ddd; stroke-width: 1; opacity: 1;"></line></g></g></g></g><g class="mark-rule role-mark child_layer_0_marks"><line transform="translate(0,96)" x2="170" y2="0" style="fill: none; stroke: red;"></line><line transform="translate(0,96)" x2="170" y2="0" style="fill: none; stroke: red;"></line><line transform="translate(0,96)" x2="170" y2="0" style="fill: none; stroke: red;"></line><line transform="translate(0,96)" x2="170" y2="0" style="fill: none; stroke: red;"></line><line transform="translate(0,96)" x2="170" y2="0" style="fill: none; stroke: red;"></line><line transform="translate(0,96)" x2="170" y2="0" style="fill: none; stroke: red;"></line><line transform="translate(0,96)" x2="170" y2="0" style="fill: none; stroke: red;"></line><line transform="translate(0,96)" x2="170" y2="0" style="fill: none; stroke: red;"></line><line transform="translate(0,96)" x2="170" y2="0" style="fill: none; stroke: red;"></line><line transform="translate(0,96)" x2="170" y2="0" style="fill: none; stroke: red;"></line><line transform="translate(0,96)" x2="170" y2="0" style="fill: none; stroke: red;"></line><line transform="translate(0,96)" x2="170" y2="0" style="fill: none; stroke: red;"></line><line transform="translate(0,96)" x2="170" y2="0" style="fill: none; stroke: red;"></line></g><g class="mark-rect role-mark child_layer_1_marks" clip-path="url(#clip7)"><path d="M0.6538461538461462,89.472h11.76923076923077v30.528000000000006h-11.76923076923077Z" style="fill: rgb(32, 111, 178);"></path><path d="M13.730769230769223,92.928h11.76923076923077v27.072000000000003h-11.76923076923077Z" style="fill: rgb(32, 111, 178);"></path><path d="M26.8076923076923,92.352h11.76923076923077v27.647999999999996h-11.76923076923077Z" style="fill: rgb(32, 111, 178);"></path><path d="M39.88461538461537,80.352h11.76923076923077v39.647999999999996h-11.76923076923077Z" style="fill: rgb(32, 111, 178);"></path><path d="M52.96153846153845,82.22399999999999h11.76923076923077v37.77600000000001h-11.76923076923077Z" style="fill: rgb(32, 111, 178);"></path><path d="M66.03846153846153,85.152h11.76923076923077v34.848h-11.76923076923077Z" style="fill: rgb(32, 111, 178);"></path><path d="M79.1153846153846,41.616h11.76923076923077v78.384h-11.76923076923077Z" style="fill: rgb(32, 111, 178);"></path><path d="M92.19230769230768,52.751999999999995h11.76923076923077v67.248h-11.76923076923077Z" style="fill: rgb(32, 111, 178);"></path><path d="M105.26923076923076,95.75999999999999h11.76923076923077v24.24000000000001h-11.76923076923077Z" style="fill: rgb(32, 111, 178);"></path><path d="M118.34615384615384,96.24h11.76923076923077v23.760000000000005h-11.76923076923077Z" style="fill: rgb(32, 111, 178);"></path><path d="M131.4230769230769,45.072h11.76923076923077v74.928h-11.76923076923077Z" style="fill: rgb(32, 111, 178);"></path><path d="M144.5,44.879999999999995h11.76923076923077v75.12h-11.76923076923077Z" style="fill: rgb(32, 111, 178);"></path><path d="M157.57692307692304,73.68h11.76923076923077v46.31999999999999h-11.76923076923077Z" style="fill: rgb(32, 111, 178);"></path></g><g class="mark-rule role-mark child_layer_2_layer_0_marks" clip-path="url(#clip8)"><line transform="translate(6.538461538461531,91.003117239144)" x2="0" y2="-3.062234478288005" style="fill: none; stroke: black;"></line><line transform="translate(19.615384615384606,93.24092171544)" x2="0" y2="-0.6258434308799963" style="fill: none; stroke: black;"></line><line transform="translate(32.692307692307686,94.412368899)" x2="0" y2="-4.120737797999993" style="fill: none; stroke: black;"></line><line transform="translate(45.76923076923076,81.568684018152)" x2="0" y2="-2.433368036304003" style="fill: none; stroke: black;"></line><line transform="translate(58.84615384615384,88.56154526611199)" x2="0" y2="-12.67509053222399" style="fill: none; stroke: black;"></line><line transform="translate(71.92307692307692,92.553967306056)" x2="0" y2="-14.803934612111988" style="fill: none; stroke: black;"></line><line transform="translate(84.99999999999999,42.892745863512005)" x2="0" y2="-2.55349172702401" style="fill: none; stroke: black;"></line><line transform="translate(98.07692307692307,56.597246416032)" x2="0" y2="-7.6904928320640025" style="fill: none; stroke: black;"></line><line transform="translate(111.15384615384615,96.749545350144)" x2="0" y2="-1.9790907002880118" style="fill: none; stroke: black;"></line><line transform="translate(124.23076923076923,97.169516003088)" x2="0" y2="-1.8590320061760082" style="fill: none; stroke: black;"></line><line transform="translate(137.3076923076923,47.681275761576)" x2="0" y2="-5.218551523152001" style="fill: none; stroke: black;"></line><line transform="translate(150.3846153846154,49.818987750552)" x2="0" y2="-9.87797550110399" style="fill: none; stroke: black;"></line><line transform="translate(163.46153846153842,76.70152279487999)" x2="0" y2="-6.043045589759984" style="fill: none; stroke: black;"></line></g></g></g></g></g></g></g></g></svg>